<?xml version="1.0" encoding="utf-8"?>
<!-- Generator: Adobe Illustrator 16.0.0, SVG Export Plug-In . SVG Version: 6.00 Build 0)  -->
<!DOCTYPE svg PUBLIC "-//W3C//DTD SVG 1.1//EN" "http://www.w3.org/Graphics/SVG/1.1/DTD/svg11.dtd">
<svg version="1.1" xmlns="http://www.w3.org/2000/svg" xmlns:xlink="http://www.w3.org/1999/xlink" x="0px" y="0px" width="250px"
	 height="250px" viewBox="0 0 250 250" enable-background="new 0 0 250 250" xml:space="preserve">
<g id="Layer_1">
	<path d="M143.684,123.639l73.061-73.061c2.774-2.773,2.775-7.273,0.001-10.049l-8.635-8.635c-2.774-2.774-7.274-2.773-10.049,0.002
		l-73.06,73.06L51.94,31.896c-2.774-2.774-7.273-2.774-10.048,0l-8.635,8.635c-2.775,2.774-2.775,7.273,0,10.048l73.061,73.061
		l-73.06,73.06c-2.774,2.774-2.774,7.273,0,10.048l8.635,8.635c2.774,2.774,7.273,2.774,10.048,0l73.06-73.061l73.059,73.06
		c2.773,2.774,7.273,2.775,10.049,0.001l8.635-8.635c2.774-2.774,2.773-7.274-0.002-10.049L143.684,123.639z"/>
</g>
<g id="Layer_3">
	<g>
		<path fill-rule="evenodd" clip-rule="evenodd" d="M125,27.675c-53.665,0-97.325,43.66-97.325,97.325s43.66,97.325,97.325,97.325
			s97.325-43.66,97.325-97.325S178.665,27.675,125,27.675z M125,215.325c-49.806,0-90.325-40.52-90.325-90.325
			S75.194,34.675,125,34.675s90.325,40.52,90.325,90.325S174.806,215.325,125,215.325z"/>
		<path fill-rule="evenodd" clip-rule="evenodd" d="M141.433,82.561c4.062-0.016,8.125-0.015,12.188,0.006
			c0.88,0.004,1.535,0.071,1.521-1.22c-0.064-6.54-0.051-13.082-0.008-19.622c0.007-1.104-0.372-1.404-1.43-1.38
			c-7.636,0.173-15.274-0.232-22.91,0.265c-13.431,0.874-22.054,9.942-22.104,23.361c-0.021,5.714-0.042,11.43,0.026,17.144
			c0.016,1.285-0.361,1.649-1.628,1.618c-3.303-0.083-6.61,0.013-9.914-0.052c-1.071-0.021-1.408,0.27-1.399,1.374
			c0.052,6.127,0.053,12.255,0,18.382c-0.01,1.139,0.256,1.543,1.461,1.511c3.096-0.085,6.205,0.115,9.291-0.081
			c1.935-0.123,2.204,0.571,2.198,2.295c-0.06,19.829-0.008,39.658-0.088,59.487c-0.007,1.871,0.5,2.249,2.274,2.224
			c7.296-0.107,14.596-0.111,21.893,0.001c1.806,0.029,2.106-0.571,2.094-2.208c-0.073-9.914-0.036-19.828-0.036-29.742
			c0-9.915,0.041-19.83-0.039-29.744c-0.014-1.723,0.262-2.388,2.207-2.316c4.677,0.172,9.362,0.043,14.044,0.066
			c0.956,0.005,1.721,0.029,1.861-1.273c0.65-6.078,1.348-12.152,2.09-18.221c0.188-1.536-0.252-1.99-1.851-1.958
			c-5.438,0.109-10.879-0.006-16.317,0.075c-1.402,0.021-1.892-0.279-1.849-1.779c0.112-3.921,0.03-7.848,0.041-11.772
			C135.06,85.018,137.473,82.577,141.433,82.561z"/>
	</g>
</g>
<g id="Layer_2">
	<g>
		<path d="M184.099,87.989c-3.108,1.122-6.277,2.011-9.521,2.633c-0.48,0.092-0.98,0.088-1.829,0.159
			c4.725-3.618,8.14-7.792,10.122-13.183c-0.954,0.024-1.661,0.483-2.389,0.828c-3.591,1.704-7.257,3.189-11.093,4.272
			c-1.679,0.474-2.897,0.169-4.204-1.019c-3.704-3.371-8.044-5.493-13.084-6.032c-0.083-0.009-4.239-0.538-6.474-0.213
			c-2.235,0.325-4.641,0.938-6.311,1.649c-7.836,3.339-12.986,9.071-15.211,17.28c-0.935,3.446-0.862,7.032-0.402,10.571
			c0.127,0.98-0.057,1.197-1.05,1.112c-17.129-1.469-32.036-7.87-44.409-19.926c-1.854-1.807-3.715-3.609-5.548-5.438
			c-0.488-0.488-0.716-0.53-1.076,0.155c-5.253,10-2.923,23.001,5.49,30.478c0.708,0.629,1.419,1.255,2.173,1.921
			c-2.012,0.147-6.188-0.84-8.757-2.044c-0.361-0.169-0.721-0.341-1.073-0.528c-0.612-0.325-0.822-0.166-0.819,0.539
			c0.016,3.264,0.621,6.385,1.978,9.375c3.384,7.457,8.966,12.336,16.865,14.543c0.102,0.029,0.19,0.111,0.333,0.197
			c-0.53,0.311-1.057,0.396-1.598,0.445c-2.624,0.238-5.251,0.353-7.872,0.044c-0.812-0.097-0.908,0.101-0.665,0.805
			c1.07,3.093,2.73,5.838,4.915,8.253c4.416,4.881,9.981,7.524,16.467,8.337c0.393,0.049,0.783,0.134,1.417,0.244
			c-5.342,3.978-11.025,6.765-17.239,8.593c-6.262,1.844-12.645,1.806-19.058,1.658c-0.058,0.548,0.44,0.615,0.744,0.796
			c7.877,4.654,16.23,8.031,25.314,9.487c1.254,0.202,2.577,0.102,3.763,0.691c5.58,0,11.16,0,16.739,0
			c1.292-0.511,2.681-0.458,4.021-0.678c15.104-2.463,27.988-9.15,38.622-20.166c10.488-10.866,16.675-23.908,19.452-38.645
			c0.885-4.702,0.995-9.491,1.188-14.262c0.024-0.606,0.222-1.011,0.715-1.394c4.146-3.215,7.764-6.947,10.822-11.216
			c0.062-0.086,0.176-0.136,0.266-0.203c0-0.159,0-0.319,0-0.478C185.171,87.354,184.641,87.793,184.099,87.989z"/>
		<path d="M125,27.675c-53.665,0-97.325,43.66-97.325,97.325s43.66,97.325,97.325,97.325s97.325-43.66,97.325-97.325
			S178.665,27.675,125,27.675z M125,215.325c-49.806,0-90.325-40.52-90.325-90.325S75.194,34.675,125,34.675
			s90.325,40.52,90.325,90.325S174.806,215.325,125,215.325z"/>
	</g>
</g>
</svg>
